name Walk3.mot
datacolumns 19
datarows 15
range 1.61900000 1.63300000
endheader

                time	   L_ground_force_vx	   L_ground_force_vy	   L_ground_force_vz	   L_ground_force_px	   L_ground_force_py	   L_ground_force_pz	   R_ground_force_vx	   R_ground_force_vy	   R_ground_force_vz	   R_ground_force_px	   R_ground_force_py	   R_ground_force_pz	   L_ground_torque_x	   L_ground_torque_y	   L_ground_torque_z	   R_ground_torque_x	   R_ground_torque_y	   R_ground_torque_z	
          1.61900000	          6.50582833	        684.52323352	         52.72778599	         -0.23766136	          0.00000000	         -0.05078888	          0.01416503	          0.33307334	          0.02394172	         -0.00007929	          0.00000000	         -0.00009749	          0.00000000	          0.61872658	          0.00000000	          0.00000000	         -0.00631703	          0.00000000	
          1.62000000	          6.65816640	        685.54033026	         52.75790762	         -0.23706933	          0.00000000	         -0.05083209	          0.02198063	          0.29562034	          0.02175538	         -0.00010369	          0.00000000	         -0.00012241	          0.00000000	          0.62655842	          0.00000000	          0.00000000	         -0.00565426	          0.00000000	
          1.62100000	          6.81432061	        686.57461934	         52.78470972	         -0.23648024	          0.00000000	         -0.05087345	          0.03043171	          0.25346612	          0.01927602	         -0.00012992	          0.00000000	         -0.00014914	          0.00000000	          0.63399081	          0.00000000	          0.00000000	         -0.00490654	          0.00000000	
          1.62200000	          6.97455361	        687.62638010	         52.80817525	         -0.23589427	          0.00000000	         -0.05091294	          0.03954244	          0.20634794	          0.01648666	         -0.00015805	          0.00000000	         -0.00017774	          0.00000000	          0.64102887	          0.00000000	          0.00000000	         -0.00406908	          0.00000000	
          1.62300000	          7.13914207	        688.69590651	         52.82829464	         -0.23531160	          0.00000000	         -0.05095057	          0.04933647	          0.15399910	          0.01337001	         -0.00018814	          0.00000000	         -0.00020826	          0.00000000	          0.64767784	          0.00000000	          0.00000000	         -0.00313699	          0.00000000	
          1.62400000	          7.30837735	        689.78350389	         52.84506590	         -0.23473241	          0.00000000	         -0.05098632	          0.05983686	          0.09614973	          0.00990852	         -0.00022025	          0.00000000	         -0.00024076	          0.00000000	          0.65394251	          0.00000000	          0.00000000	         -0.00210533	          0.00000000	
          1.62500000	          7.48256574	        690.88948475	         52.85849447	         -0.23415687	          0.00000000	         -0.05102019	          0.07106588	          0.03252763	          0.00608446	         -0.00025444	          0.00000000	         -0.00027529	          0.00000000	          0.65982683	          0.00000000	          0.00000000	         -0.00096912	          0.00000000	
          1.62600000	          7.66202785	        692.01416391	         52.86859263	         -0.23358516	          0.00000000	         -0.05105216	          0.08304485	         -0.03714090	          0.00187992	         -0.00029075	          0.00000000	         -0.00031188	          0.00000000	          0.66533378	          0.00000000	          0.00000000	          0.00027669	          0.00000000	
          1.62700000	          7.84709741	        693.15785328	         52.87537867	         -0.23301745	          0.00000000	         -0.05108223	          0.09579401	         -0.11313000	         -0.00272310	         -0.00032923	          0.00000000	         -0.00035059	          0.00000000	          0.67046559	          0.00000000	          0.00000000	          0.00163712	          0.00000000	
          1.62800000	          8.03811983	        694.32085684	         52.87887588	         -0.23245392	          0.00000000	         -0.05111039	          0.10933226	         -0.19571316	         -0.00774260	         -0.00036994	          0.00000000	         -0.00039145	          0.00000000	          0.67522408	          0.00000000	          0.00000000	          0.00311720	          0.00000000	
          1.62900000	          8.23545089	        695.50346643	         52.87911120	         -0.23189474	          0.00000000	         -0.05113664	          0.12367703	         -0.28516209	         -0.01319657	         -0.00041289	          0.00000000	         -0.00043449	          0.00000000	          0.67961113	          0.00000000	          0.00000000	          0.00472195	          0.00000000	
          1.63000000	          8.43945569	        696.70595863	         52.87611382	         -0.23134008	          0.00000000	         -0.05116097	          0.13884400	         -0.38174538	         -0.01910284	         -0.00045814	          0.00000000	         -0.00047973	          0.00000000	          0.68362898	          0.00000000	          0.00000000	          0.00645632	          0.00000000	
          1.63100000	          8.65050785	        697.92859277	         52.86991373	         -0.23079011	          0.00000000	         -0.05118337	          0.15484695	         -0.48572709	         -0.02547906	         -0.00050569	          0.00000000	         -0.00052720	          0.00000000	          0.68728049	          0.00000000	          0.00000000	          0.00832519	          0.00000000	
          1.63200000	          8.86898859	        699.17160965	         52.86054068	         -0.23024501	          0.00000000	         -0.05120384	          0.17169748	         -0.59736530	         -0.03234257	         -0.00055558	          0.00000000	         -0.00057690	          0.00000000	          0.69056933	          0.00000000	          0.00000000	          0.01033334	          0.00000000	
          1.63300000	          9.09528538	        700.43523041	         52.84802371	         -0.22970494	          0.00000000	         -0.05122237	          0.18940475	         -0.71691043	         -0.03971029	         -0.00060780	          0.00000000	         -0.00062883	          0.00000000	          0.69350020	          0.00000000	          0.00000000	          0.01248542	          0.00000000	
